<svg viewBox="0 0 233 28" xmlns="http://www.w3.org/2000/svg" xmlns:xlink="http://www.w3.org/1999/xlink">
	<defs>
		<path id="a" d="M0 .157h21.583v27.324H0z"/>
		<path id="c" d="M.308.411H18.89V21.26H.308z"/>
		<path id="e" d="M.379.232h22.45V28H.378z"/>
		<path id="g" d="M.124.411h18.804V21.26H.124z"/>
		<path id="i" d="M0 28h231.61V.232H0z"/>
	</defs>
	<g fill="none" fill-rule="evenodd">
		<g fill-rule="nonzero">
			<path d="M222 23.197c-.543 3.2-2.417 4.803-5.62 4.803-1.91 0-3.331-.708-4.27-2.124-.739-1.122-1.11-2.544-1.11-4.261 0-1.88.42-3.393 1.258-4.538 1.025-1.385 2.6-2.077 4.725-2.077 1.72 0 3.041.582 3.96 1.747A4.798 4.798 0 0 1 222 19.779h-3.024c-.357-1.498-1.143-2.247-2.355-2.247-.927 0-1.592.517-1.993 1.549-.26.672-.389 1.49-.389 2.457 0 2.706.82 4.061 2.462 4.061 1.142 0 1.9-.8 2.275-2.402H222zM21.517 18.61c0 2.722-.917 4.902-2.748 6.54-1.906 1.7-4.535 2.55-7.89 2.55-3.25 0-5.887-.867-7.91-2.602-1.98-1.699-2.97-3.86-2.97-6.487V.257h5.584v18.799c0 2.84 1.707 4.26 5.12 4.26 3.486 0 5.23-1.42 5.23-4.26V.257h5.584v18.354zM38 11.928a12.615 12.615 0 0 0-1.708-.108C33.43 11.82 32 13.104 32 15.668V27H27V7.317h4.999v3.813c.383-1.134 1.189-2.14 2.413-3.015C35.45 7.372 36.426 7 37.339 7c.142 0 .364.022.661.07v4.858zM55.522 17.381c0-1.612-.268-2.987-.805-4.127-.784-1.637-2.025-2.453-3.729-2.453-1.733 0-2.983.811-3.75 2.436-.538 1.124-.805 2.508-.805 4.144 0 1.575.282 2.952.85 4.126.797 1.649 2.032 2.474 3.705 2.474 3.022 0 4.534-2.2 4.534-6.6M61 16.945c0 2.642-.6 4.994-1.795 7.055-1.551 2.666-3.814 4-6.79 4-2.562 0-4.558-.96-5.982-2.874v2.018H41V0h5.433v9.728c.46-.947 1.238-1.698 2.333-2.255 1.1-.56 2.3-.836 3.604-.836 2.93 0 5.186 1.199 6.764 3.6C60.377 12.164 61 14.4 61 16.945M76.705 19.33v-1.876c-.986.453-2.628.93-4.931 1.43a3.253 3.253 0 0 0-1.695.965c-.477.502-.717 1.02-.717 1.557 0 1.857.88 2.788 2.638 2.788 3.136 0 4.705-1.62 4.705-4.864zM83 27.16h-5.722c-.383-.5-.573-1.097-.573-1.788v-.198C74.727 27.057 72.545 28 70.16 28c-2.068 0-3.639-.568-4.71-1.698C64.481 25.3 64 23.954 64 22.26c0-1.881.545-3.304 1.635-4.269.819-.729 2.206-1.342 4.16-1.842l5.569-1.43c.893-.297 1.341-.958 1.341-1.984 0-1.609-1.085-2.413-3.25-2.413-2.364 0-3.622 1.196-3.773 3.59h-5.023c0-4.61 2.856-6.913 8.567-6.913 5.699 0 8.548 2.096 8.548 6.289v10.833c0 .88.407 1.66 1.226 2.34v.698zM104 27h-5.23V14.801c0-1.24-.149-2.116-.445-2.625-.46-.792-1.381-1.187-2.77-1.187-1.3 0-2.343.29-3.126.868-.828.603-1.242 1.414-1.242 2.431V27H86V7.319h5.187v2.979C92.339 8.098 94.019 7 96.217 7 101.406 7 104 9.275 104 13.825V27z"
				  fill="#CFAD67"/>
			<path d="M129 19.178C129 25.06 125.101 28 117.303 28c-3.035 0-5.49-.848-7.363-2.54-1.772-1.6-2.75-3.672-2.94-6.21h5.359c0 1.36.537 2.48 1.611 3.364 1.074.883 2.44 1.323 4.094 1.323 1.57 0 2.877-.317 3.922-.947 1.162-.716 1.742-1.694 1.742-2.934 0-1.3-.53-2.279-1.589-2.935-.756-.477-2.049-.888-3.876-1.233-3.326-.645-5.28-1.063-5.86-1.254-3.268-1.121-4.902-3.32-4.902-6.602 0-2.575.902-4.563 2.7-5.957C111.959.69 114.42 0 117.586 0c4.211 0 7.21 1.138 8.996 3.417 1.045 1.337 1.569 2.85 1.569 4.545 0 .308-.016.518-.044.625h-5.141v-.071c0-1.313-.513-2.39-1.54-3.238-1.023-.846-2.34-1.27-3.94-1.27-3.257 0-4.886 1.192-4.886 3.577 0 1.695 1.059 2.834 3.183 3.417.696.192 2.436.544 5.21 1.056 2.619.489 4.56 1.233 5.825 2.235 1.453 1.17 2.182 2.8 2.182 4.885M143 11.052h-2.997v11.57c0 1.16.296 1.739.892 1.739h2.013v3.15a9.7 9.7 0 0 1-3.041.489c-1.462 0-2.706-.38-3.726-1.141-1.023-.759-1.534-1.714-1.534-2.861V11.052H132v-4h2.607V2h5.396v5.052H143v4zM159.716 17.49c0-1.62-.29-2.997-.87-4.129-.818-1.561-2.095-2.34-3.834-2.34-1.785 0-3.077.774-3.878 2.322-.582 1.108-.872 2.49-.872 4.147 0 4.326 1.583 6.488 4.75 6.488 3.136 0 4.704-2.162 4.704-6.488m5.284 0c0 2.956-.728 5.356-2.184 7.203-1.74 2.203-4.343 3.307-7.804 3.307-3.494 0-6.11-1.098-7.848-3.289C145.722 22.876 145 20.47 145 17.49c0-2.956.73-5.356 2.186-7.204C148.926 8.094 151.533 7 155.012 7c3.461 0 6.065 1.1 7.804 3.306C164.272 12.15 165 14.547 165 17.49M180 11.928a12.656 12.656 0 0 0-1.709-.108c-2.861 0-4.293 1.284-4.293 3.848V27H169V7.317h4.998v3.813c.385-1.134 1.19-2.14 2.415-3.015C177.45 7.372 178.427 7 179.34 7c.14 0 .36.022.66.07v4.858zM196.725 15.449c0-1.072-.24-1.993-.716-2.763-.687-1.094-1.747-1.642-3.18-1.642-1.43 0-2.53.5-3.29 1.502-.61.816-.917 1.784-.917 2.903h8.103zm5.506 2.026c0 .106-.007.268-.022.49a7.66 7.66 0 0 0-.022.488h-13.565v1.205c0 1.097.362 2.075 1.09 2.938.832.978 1.892 1.468 3.183 1.468.847 0 1.65-.268 2.415-.804.765-.537 1.236-1.137 1.415-1.8h5.238c-.461 1.911-1.507 3.425-3.134 4.545-1.67 1.164-3.731 1.748-6.178 1.748-3.15 0-5.56-1.044-7.23-3.13-1.418-1.77-2.127-3.96-2.127-6.572 0-2.98.612-5.393 1.836-7.234 1.596-2.4 4.118-3.599 7.566-3.599 3.477 0 6.057 1.274 7.745 3.826 1.193 1.807 1.79 3.95 1.79 6.43z"
				  fill="#D0D2D3"/>
			<path fill="#CFAD67" d="M233 27h-10v-2.551l6.14-7.082h-5.7V15h9.374v2.56l-6.085 7.115H233z"/>
		</g>
		<g transform="translate(1)">
			<g transform="translate(0 .519)">
				<mask id="b" fill="#fff">
					<use xlink:href="#a"/>
				</mask>
				<path d="M21.583 18.433c0 2.708-.92 4.879-2.757 6.511-1.911 1.692-4.549 2.537-7.912 2.537-3.26 0-5.906-.863-7.936-2.59C.993 23.199 0 21.047 0 18.433V.157H5.6v18.719c0 2.828 1.712 4.24 5.135 4.24 3.497 0 5.245-1.412 5.245-4.24V.157h5.602v18.276z"
					  fill="#D0AD67" mask="url(#b)"/>
			</g>
			<path d="M37.92 12.084a13.873 13.873 0 0 0-1.778-.106c-2.979 0-4.468 1.283-4.468 3.85v11.338h-5.201V7.472h5.201v3.814c.4-1.136 1.237-2.14 2.512-3.016 1.081-.745 2.096-1.118 3.045-1.118.148 0 .378.024.689.07v4.862zM54.835 17.638c0-1.573-.26-2.916-.778-4.028-.756-1.597-1.957-2.395-3.601-2.395-1.675 0-2.882.793-3.623 2.378-.52 1.1-.778 2.448-.778 4.045 0 1.538.274 2.88.822 4.028.77 1.608 1.964 2.413 3.579 2.413 2.919 0 4.379-2.147 4.379-6.44m5.29-.427c0 2.58-.578 4.874-1.734 6.884C56.894 26.7 54.708 28 51.834 28c-2.474 0-4.4-.934-5.779-2.804v1.97H40.81V.676h5.246v9.492c.445-.923 1.197-1.656 2.256-2.2 1.06-.544 2.219-.816 3.478-.816 2.83 0 5.009 1.171 6.535 3.513 1.2 1.88 1.801 4.063 1.801 6.547"
				  fill="#D0AD67"/>
			<g transform="translate(62.106 6.74)">
				<mask id="d" fill="#fff">
					<use xlink:href="#c"/>
				</mask>
				<path d="M12.733 12.654V10.79c-.964.45-2.571.924-4.823 1.42a3.176 3.176 0 0 0-1.657.958c-.466.497-.7 1.012-.7 1.544 0 1.845.86 2.768 2.579 2.768 3.067 0 4.6-1.609 4.6-4.826zm6.157 7.771h-5.597c-.373-.497-.56-1.088-.56-1.774v-.196c-1.935 1.87-4.068 2.804-6.4 2.804-2.023 0-3.56-.562-4.608-1.685-.945-.994-1.417-2.33-1.417-4.01 0-1.87.533-3.283 1.6-4.24.8-.722 2.157-1.332 4.068-1.828l5.445-1.42c.875-.295 1.312-.952 1.312-1.97 0-1.596-1.06-2.395-3.178-2.395-2.312 0-3.542 1.19-3.69 3.567H.953C.953 2.7 3.745.41 9.333.41c5.57 0 8.357 2.082 8.357 6.246v10.752c0 .875.4 1.65 1.2 2.324v.692z"
					  fill="#D0AD67" mask="url(#d)"/>
			</g>
			<path d="M102.557 27.166H97.31V14.958c0-1.24-.148-2.116-.445-2.625-.459-.793-1.385-1.189-2.778-1.189-1.304 0-2.349.29-3.134.87-.83.602-1.245 1.413-1.245 2.43v12.722h-5.201V7.472h5.201v2.98c1.156-2.2 2.838-3.3 5.046-3.3 5.2 0 7.802 2.277 7.802 6.83v13.184z"
				  fill="#D0AD67"/>
			<g transform="translate(105.735)">
				<mask id="f" fill="#fff">
					<use xlink:href="#e"/>
				</mask>
				<path d="M22.828 19.252c0 5.832-3.979 8.748-11.936 8.748-3.098 0-5.6-.84-7.513-2.52-1.808-1.585-2.808-3.637-3-6.156h5.468c0 1.348.548 2.46 1.644 3.335 1.096.876 2.49 1.314 4.18 1.314 1.599 0 2.933-.314 4-.941 1.185-.71 1.778-1.68 1.778-2.91 0-1.29-.54-2.26-1.623-2.91-.77-.473-2.089-.88-3.956-1.224-3.393-.639-5.387-1.053-5.98-1.241-3.333-1.113-5-3.295-5-6.548 0-2.556.919-4.524 2.756-5.909C5.439.918 7.95.232 11.18.232c4.297 0 7.358 1.13 9.18 3.39 1.066 1.324 1.6 2.826 1.6 4.506 0 .308-.015.514-.044.62h-5.246v-.07c0-1.301-.524-2.371-1.57-3.212-1.047-.84-2.387-1.26-4.021-1.26-3.326 0-4.99 1.184-4.99 3.55 0 1.679 1.084 2.809 3.25 3.388.712.19 2.486.538 5.32 1.047 2.67.485 4.651 1.224 5.942 2.218 1.484 1.16 2.226 2.774 2.226 4.843"
					  fill="#D2D3D4" mask="url(#f)"/>
			</g>
			<path d="M141.076 11.393h-2.911V22.73c0 1.136.289 1.703.867 1.703h1.955v3.088a9.35 9.35 0 0 1-2.956.479c-1.422 0-2.63-.373-3.623-1.118-.993-.745-1.49-1.68-1.49-2.803V11.393h-2.533V7.472h2.534v-4.95h5.246v4.95h2.911v3.92zM158.236 17.567c0-1.609-.29-2.974-.867-4.099-.815-1.55-2.09-2.324-3.823-2.324-1.778 0-3.067.77-3.867 2.307-.578 1.1-.867 2.472-.867 4.116 0 4.294 1.578 6.44 4.734 6.44 3.126 0 4.69-2.146 4.69-6.44m5.268 0c0 2.934-.726 5.317-2.179 7.15C159.592 26.906 157 28 153.545 28c-3.481 0-6.09-1.088-7.823-3.265-1.438-1.821-2.156-4.211-2.156-7.168 0-2.933.726-5.317 2.178-7.15 1.734-2.176 4.334-3.265 7.802-3.265 3.453 0 6.046 1.094 7.78 3.283 1.452 1.833 2.178 4.21 2.178 7.132M178.796 12.084a13.887 13.887 0 0 0-1.778-.106c-2.979 0-4.468 1.283-4.468 3.85v11.338h-5.201V7.472h5.2v3.814c.401-1.136 1.238-2.14 2.513-3.016 1.082-.745 2.097-1.118 3.045-1.118.148 0 .378.024.69.07v4.862z"
				  fill="#D2D3D4"/>
			<g transform="translate(180.673 6.74)">
				<mask id="h" fill="#fff">
					<use xlink:href="#g"/>
				</mask>
				<path d="M13.46 8.768c0-1.088-.237-2.023-.711-2.803-.682-1.112-1.734-1.669-3.156-1.669-1.423 0-2.512.51-3.268 1.526-.607.83-.911 1.81-.911 2.946h8.046zm5.468 2.058c0 .107-.007.272-.022.497a8.43 8.43 0 0 0-.022.497H5.414v1.224c0 1.113.36 2.106 1.084 2.98.825.994 1.878 1.491 3.16 1.491.84 0 1.64-.272 2.399-.816.758-.543 1.226-1.153 1.403-1.827h5.202c-.46 1.94-1.497 3.477-3.113 4.613-1.659 1.182-3.703 1.774-6.134 1.774-3.127 0-5.52-1.058-7.179-3.176C.828 16.285.124 14.061.124 11.412c0-3.028.608-5.476 1.823-7.346C3.532 1.63 6.037.411 9.459.411c3.453 0 6.017 1.295 7.69 3.885 1.186 1.835 1.78 4.01 1.78 6.53z"
					  fill="#D2D3D4" mask="url(#h)"/>
			</g>
			<mask id="j" fill="#fff">
				<use xlink:href="#i"/>
			</mask>
			<path fill="#D0AD67" mask="url(#j)" d="M202.582 27.166h3.516v-3.33h-3.516z"/>
		</g>
	</g>
</svg>
