<svg xmlns="http://www.w3.org/2000/svg" viewBox="0 0 512 512">
	<path
		d="M464 224H48c-8.848 0-16-7.152-16-16s7.152-16 16-16h32l96-176c0-8.848 7.152-16 16-16h32c8.848 0 16 7.152 16 16l-96 176h224L272 16c0-8.848 7.152-16 16-16h48c8.848 0 16 7.152 16 16l80 176h32c8.848 0 16 7.152 16 16s-7.152 16-16 16zM48 256h416c8.848 0 16 7.152 16 16l-32 224c0 8.848-7.152 16-16 16H80c-8.848 0-16-7.152-16-16L32 272c0-8.848 7.152-16 16-16zm304 192h32c8.848 0 16-7.152 16-16l16-96c0-8.848-7.152-16-16-16h-32c-8.848 0-16 7.152-16 16l-16 96c0 8.848 7.152 16 16 16zm-128-16c0 8.848 7.152 16 16 16h32c8.848 0 16-7.152 16-16v-96c0-8.848-7.152-16-16-16h-32c-8.848 0-16 7.152-16 16v96zm-112 0c0 8.848 7.152 16 16 16h32c8.848 0 16-7.152 16-16l-16-96c0-8.848-7.152-16-16-16h-32c-8.848 0-16 7.152-16 16l16 96z"/>
</svg>
