<svg viewBox="0 0 41 22" xmlns="http://www.w3.org/2000/svg">
	<g fill="#FFF" fill-rule="nonzero">
		<path d="M38.96 4.885c-1.053-1.138-2.554-1.766-4.222-1.766h-4.014V.955A.96.96 0 0 0 29.766 0H10.643a.96.96 0 0 0-.958.955V4.28H5.958A.96.96 0 0 0 5 5.235a.96.96 0 0 0 .958.955H10.65a.96.96 0 0 0 .957-.955V1.91h17.208v14.965h-9.019c-.04 0-.08 0-.12.008a3.214 3.214 0 0 0-5.97.016.923.923 0 0 0-.207-.024h-1.892v-3.333a.96.96 0 0 0-.957-.955H5.958a.96.96 0 0 0-.958.955.96.96 0 0 0 .958.955h3.727v3.325a.96.96 0 0 0 .958.955H13.556a3.209 3.209 0 0 0 3.137 2.498 3.215 3.215 0 0 0 3.136-2.498h11.477a3.224 3.224 0 0 0 3.137 2.498 3.215 3.215 0 0 0 3.136-2.498h2.14a.96.96 0 0 0 .957-.955V9.89c0-2.06-.598-3.795-1.716-5.005zM16.693 19.374a1.3 1.3 0 0 1-1.301-1.297 1.3 1.3 0 0 1 1.3-1.297c.719 0 1.301.58 1.301 1.297a1.3 1.3 0 0 1-1.3 1.297zm17.75 0a1.3 1.3 0 0 1-1.301-1.297 1.3 1.3 0 0 1 1.3-1.297c.72 0 1.302.58 1.302 1.297a1.31 1.31 0 0 1-1.301 1.297zm4.318-2.499H37.42a3.23 3.23 0 0 0-2.977-2.005c-1.341 0-2.498.828-2.977 2.005h-.734V5.028h4.014c2.514 0 4.015 1.822 4.015 4.87v6.977z"/>
		<path d="M16.45 11.126a.954.954 0 0 0 .678 1.63.976.976 0 0 0 .678-.278l2.466-2.458.008-.008c.016-.024.04-.04.056-.064.008-.016.016-.024.024-.04.008-.015.016-.023.032-.04l.024-.047c.008-.016.016-.024.024-.04l.024-.047c.008-.016.016-.024.016-.04.008-.016.008-.032.016-.048s.008-.032.016-.04c.008-.016.008-.032.008-.048 0-.015.008-.031.008-.047s.008-.032.008-.056c0-.016.008-.024.008-.04a.764.764 0 0 0 0-.19c0-.017 0-.025-.008-.04 0-.016-.008-.032-.008-.056 0-.016-.008-.032-.008-.048s-.008-.032-.008-.048c-.008-.016-.008-.031-.016-.04-.008-.015-.008-.031-.016-.047s-.016-.024-.016-.04l-.024-.048c-.008-.016-.016-.024-.024-.04l-.024-.047a.14.14 0 0 0-.032-.04c-.008-.016-.016-.024-.024-.04-.016-.024-.04-.04-.056-.063l-.008-.008-2.346-2.34a.96.96 0 0 0-1.357 0 .954.954 0 0 0 0 1.353l.71.708H.958A.96.96 0 0 0 0 9.296a.96.96 0 0 0 .958.955H17.27l-.822.875z"/>
	</g>
</svg>
