<svg viewBox="0 0 22 24" xmlns="http://www.w3.org/2000/svg">
	<g fill="#FFF" fill-rule="nonzero">
		<path d="M20.94 12.31a.733.733 0 0 1 0-.62l.854-1.832c.477-1.02.1-2.235-.858-2.767l-1.72-.955a.702.702 0 0 1-.35-.503l-.336-2.007c-.187-1.118-1.175-1.87-2.248-1.71l-1.928.285a.653.653 0 0 1-.565-.192l-1.4-1.417c-.779-.79-2-.79-2.779 0L8.211 2.009a.653.653 0 0 1-.565.192l-1.928-.285c-1.073-.16-2.06.592-2.248 1.71l-.336 2.007a.702.702 0 0 1-.35.503l-1.72.955C.107 7.623-.27 8.84.206 9.858l.855 1.831a.733.733 0 0 1 0 .622l-.855 1.831c-.477 1.02-.1 2.235.858 2.767l1.72.955a.702.702 0 0 1 .35.503l.336 2.008c.17 1.017 1.004 1.73 1.962 1.73.094 0 .19-.006.286-.02l1.928-.286c.208-.03.414.04.565.192l1.4 1.417C10 23.803 10.5 24 11 24s1-.197 1.39-.592l1.399-1.417a.654.654 0 0 1 .565-.192l1.928.285c1.074.16 2.06-.592 2.248-1.71l.337-2.007a.702.702 0 0 1 .349-.503l1.72-.955c.957-.532 1.335-1.747.858-2.767l-.855-1.831zm-.624 3.376l-1.72.955a2.075 2.075 0 0 0-1.032 1.487l-.336 2.007c-.064.378-.398.632-.761.579l-1.928-.286a1.93 1.93 0 0 0-1.67.568l-1.399 1.417a.652.652 0 0 1-.94 0l-1.4-1.417a1.938 1.938 0 0 0-1.669-.568l-1.928.286c-.363.053-.697-.2-.76-.579l-.337-2.007a2.075 2.075 0 0 0-1.032-1.487l-1.72-.955a.721.721 0 0 1-.29-.936l.855-1.831a2.166 2.166 0 0 0 0-1.838l-.855-1.83a.721.721 0 0 1 .29-.937l1.72-.955a2.075 2.075 0 0 0 1.032-1.487l.336-2.007c.064-.378.398-.632.76-.579l1.929.286a1.93 1.93 0 0 0 1.67-.568l1.399-1.417a.652.652 0 0 1 .94 0l1.4 1.417a1.93 1.93 0 0 0 1.669.568l1.928-.286c.363-.054.697.2.76.579l.337 2.007c.107.64.483 1.182 1.032 1.487l1.72.955c.324.18.451.591.29.936l-.855 1.831a2.166 2.166 0 0 0 0 1.838l.855 1.83a.721.721 0 0 1-.29.937z"/>
		<path d="M15.807 7.193a.658.658 0 0 0-.93 0l-8.684 8.684a.658.658 0 0 0 .93.93l8.684-8.684a.658.658 0 0 0 0-.93zM8.5 6A2.503 2.503 0 0 0 6 8.5C6 9.878 7.122 11 8.5 11S11 9.878 11 8.5 9.878 6 8.5 6zm0 3.636c-.627 0-1.136-.51-1.136-1.136 0-.627.51-1.136 1.136-1.136.627 0 1.136.51 1.136 1.136 0 .627-.51 1.136-1.136 1.136zM13.5 13a2.503 2.503 0 0 0-2.5 2.5c0 1.378 1.122 2.5 2.5 2.5s2.5-1.122 2.5-2.5-1.122-2.5-2.5-2.5zm0 3.636c-.627 0-1.136-.51-1.136-1.136 0-.627.51-1.136 1.136-1.136.627 0 1.136.51 1.136 1.136 0 .627-.51 1.136-1.136 1.136z"/>
	</g>
</svg>
