<svg viewBox="0 0 28 35" xmlns="http://www.w3.org/2000/svg">
	<g fill="#FFF" fill-rule="nonzero">
		<path d="M13.94 0C6.262 0 0 6.222 0 13.88c0 .928.09 1.855.271 2.752 0 .06.03.12.03.21 1.536 6.85 12.344 17.14 12.796 17.56.24.239.542.329.843.329.3 0 .602-.12.843-.33.451-.448 11.2-10.709 12.735-17.41 0-.06.03-.12.03-.179.211-.957.301-1.944.301-2.932C27.88 6.222 21.617 0 13.94 0zm11.2 16.363v.09c-1.144 4.966-8.641 12.803-11.2 15.346-2.56-2.543-10.086-10.38-11.23-15.466 0-.06 0-.09-.03-.15-.151-.777-.241-1.555-.241-2.333 0-6.282 5.148-11.427 11.47-11.427 6.323 0 11.502 5.115 11.502 11.427 0 .868-.09 1.706-.271 2.513z"/>
		<path d="M13.667 8C11.077 8 9 10.094 9 12.637c0 2.542 2.108 4.637 4.667 4.637 2.559 0 4.666-2.065 4.666-4.637 0-2.573-2.077-4.637-4.666-4.637zm0 6.85a2.216 2.216 0 0 1-2.228-2.213c0-1.227.993-2.214 2.228-2.214 1.234 0 2.228.987 2.228 2.214a2.216 2.216 0 0 1-2.228 2.213z"/>
	</g>
</svg>
