<svg xmlns="http://www.w3.org/2000/svg" viewBox="0 0 512 512">
	<path
		d="M352 0H160c-35.344 0-64 28.656-64 64v384c0 35.344 28.656 64 64 64h192c35.344 0 64-28.656 64-64V64c0-35.344-28.656-64-64-64zm-88 48h48c4.4 0 8 3.584 8 8s-3.6 8-8 8h-48c-4.416 0-8-3.584-8-8s3.584-8 8-8zm-56-16c8.832 0 16 7.168 16 16s-7.168 16-16 16-16-7.168-16-16 7.168-16 16-16zm80 432c0 8.848-7.152 16-16 16h-32c-8.832 0-16-7.152-16-16v-32c0-8.848 7.168-16 16-16h32c8.848 0 16 7.152 16 16v32zm96-96c0 8.848-7.152 16-16 16H144c-8.832 0-16-7.152-16-16V112c0-8.832 7.168-16 16-16h224c8.848 0 16 7.168 16 16v256z"/>
</svg>
