<svg viewBox="0 0 40 34" xmlns="http://www.w3.org/2000/svg">
	<g fill="none" fill-rule="evenodd">
		<path d="M30.658 7.92a.888.888 0 0 0-.084-.376.815.815 0 0 0-.569-.454L15.708.085a.84.84 0 0 0-.737 0L.533 7.154a.854.854 0 0 0-.477.737V25.666c0 .326.183.624.477.765l14.438 7.07c.007 0 .007 0 .014.006a.248.248 0 0 1 .063.029c.007 0 .014.007.028.007l.063.021c.007 0 .014.007.021.007.022.007.05.007.07.014h.022c.028 0 .063.007.091.007.028 0 .063 0 .091-.007h.021c.021 0 .05-.007.07-.014.007 0 .014-.007.022-.007l.063-.021c.007 0 .014-.007.028-.007.02-.007.042-.015.063-.029.007 0 .007 0 .014-.007l14.48-7.09a.858.858 0 0 0 .477-.766V7.941c-.014-.007-.014-.014-.014-.021zM15.336 1.794l12.521 6.133-4.61 2.261-12.522-6.133 4.611-2.261zm0 12.265L2.815 7.927l5.98-2.929 12.52 6.133-5.979 2.928zM1.741 9.295l12.753 6.246v15.832L1.74 25.127V9.295zm14.437 22.078V15.541l5.987-2.935v4.14c0 .468.38.851.842.851a.849.849 0 0 0 .843-.85v-4.97l5.123-2.51v15.832l-12.795 6.274z"
			  fill="#FFF" fill-rule="nonzero"/>
		<ellipse stroke="#FFF" stroke-width="1.5" fill="#2A2A2A" cx="31.24" cy="24.493" rx="7.384" ry="7.405"/>
		<path d="M34.52 21.825l-4.426 4.439-1.84-1.844a.66.66 0 0 0-.935 0 .664.664 0 0 0 0 .938l2.307 2.314a.662.662 0 0 0 .936 0l4.889-4.903a.664.664 0 0 0 0-.939.649.649 0 0 0-.93-.005z"
			  fill="#FFF" fill-rule="nonzero"/>
	</g>
</svg>
