<svg xmlns="http://www.w3.org/2000/svg" viewBox="0 0 512 512">
	<path
		d="M34.016 19.008c20.448-20.496 82.256-23.92 82.72-13.072.464 10.832 55.664 131.056 56.144 141.904.48 10.832-36.384 47.792-47.168 58.608-10.688 10.704 72.128 104.528 73.696 106.304 1.76 1.584 95.36 84.592 106.048 73.872 10.784-10.816 47.664-47.76 58.448-47.28 10.816.464 130.768 55.792 141.584 56.288 10.816.464 7.408 62.4-13.04 82.912-17.488 17.52-108.032 81.136-265.472-32.464-17.264-9.952-44.608-32.784-86.08-74.336a.349.349 0 0 0-.08-.064c-.032-.048-.064-.064-.096-.096l-.096-.096a.349.349 0 0 0-.064-.08C99.12 329.84 76.336 302.416 66.4 285.12-46.928 127.296 16.544 36.528 34.016 19.008z"/>
</svg>
