<svg xmlns="http://www.w3.org/2000/svg" viewBox="0 0 512 512">
	<path
		d="M507.44 463.248c6.096 6.096 6.096 15.984 0 22.096l-22.096 22.096c-6.112 6.096-16 6.096-22.096 0L308.56 352.752c-1.68-1.68-2.8-3.664-3.552-5.776C273.28 370.16 234.32 384 192 384 85.968 384 0 298.032 0 192S85.968 0 192 0s192 85.968 192 192c0 42.32-13.84 81.28-37.024 113.008 2.112.752 4.096 1.856 5.776 3.552L507.44 463.248zM192 64c-70.688 0-128 57.312-128 128s57.312 128 128 128 128-57.312 128-128S262.688 64 192 64z"/>
</svg>
