<svg xmlns="http://www.w3.org/2000/svg" viewBox="0 0 512 512">
	<path
		d="M0 512v-48c0-71.744 90.384-98.864 209.584-109.792-26.176-16.224-46.72-61.824-57.424-98.24-.048 0-.096.032-.16.032-1.088 0-24-28.656-24-64 0-31.008-2.208-56.864 16.112-62.72-.016-.432-.112-.848-.112-1.28 0-39.312 20.336-73.76 50.992-93.744C202.912 14.496 227.056 0 256 0s53.088 14.496 61.008 34.256C347.664 54.24 368 88.688 368 128c0 .432-.096.848-.112 1.28C386.208 135.136 384 160.992 384 192c0 35.344-25.408 64-24 64-.064 0-.112-.032-.16-.032-10.704 36.4-31.248 82.016-57.424 98.24C421.616 365.136 512 391.248 512 464v48H0z"/>
</svg>
